<svg xmlns="http://www.w3.org/2000/svg" xmlns:xlink="http://www.w3.org/1999/xlink" viewBox="0 0 211.75 57.23"><defs><style>.cls-1{fill:none;}.cls-2{clip-path:url(#clip-path);}.cls-3{fill:#fff;}</style><clipPath id="clip-path" transform="translate(0 -2.17)"><rect class="cls-1" width="211.76" height="59.87"/></clipPath></defs><g id="Layer_2" data-name="Layer 2"><g id="Layer_1-2" data-name="Layer 1"><g class="cls-2"><path class="cls-3" d="M44.42,45.1H52.5V8.59H44.42Zm-24.25-37h-.66C16.37,8.13,14,9.53,12.42,13,10.18,17.89,0,45.1,0,45.1H8.36s1.51-4.37,3.33-9.47a38.58,38.58,0,0,0,8.25.86,38.27,38.27,0,0,0,8.23-.93c1.86,5.1,3.51,9.54,3.51,9.54H40S29.55,17.81,27.28,13c-1.63-3.48-4-4.87-7.11-4.86M19.89,29.5a19.77,19.77,0,0,1-5.73-.77c2-5.65,3.86-10.76,4.09-11.39.56-1.5,1-2,1.61-2s1.05.5,1.62,2c.24.62,2.1,5.72,4.17,11.35a20.26,20.26,0,0,1-5.76.81M84.25,13c-1.62-3.48-4-4.87-7.1-4.86h-.67C73.35,8.13,71,9.53,69.39,13,67.16,17.89,57,45.1,57,45.1h8.35s1.51-4.37,3.34-9.47a38.44,38.44,0,0,0,8.25.86,38.25,38.25,0,0,0,8.22-.93c1.86,5.1,3.52,9.54,3.52,9.54h8.27S86.52,17.81,84.25,13M76.86,29.5a19.7,19.7,0,0,1-5.72-.77c2-5.65,3.86-10.76,4.08-11.39.56-1.5,1-2,1.62-2s1,.5,1.61,2c.24.62,2.11,5.72,4.17,11.35a20.21,20.21,0,0,1-5.76.81" transform="translate(0 -2.17)"/><path class="cls-3" d="M130.55,30.19c0,.73-2.21,9.59-2.21,10.32a1.14,1.14,0,0,0,.36,1s.48,2.78-3.13,3.67a3,3,0,0,1-3-3.22c.28-2.67.7-10.56,5-15.41a3.83,3.83,0,0,1,3,3.67m48-3.39c.75,0,2.42-1.28,2.42-2.34,0-.48-1.81-4.4-4.27-4.4A2,2,0,0,0,175,21.67c0,1.21,1,5.13,3.56,5.13m-47-2.8c.75,0,2.13-.5,2.13-1.57,0-.47-1.94-5.13-4.4-5.13a2,2,0,0,0-1.71,1.61c0,1.21.27,5.09,4,5.09m7.6-21.39c-1-1.14-14-2.61-25.14,32.62a.24.24,0,0,1-.47,0c-1.75-9.35-1-20-1.21-21.65-.55-4.24-4.14-2.89-4.14-2.89-1.62,3.37-.59,30.58,2.12,34.12,1.62.69,6.24.45,7.22-.65,0,0,6.48-34.4,21.62-41.52m69.51,25.16c-.33,0-.53.42-.53.42-3.92,7.07-7.47,12.71-10.48,12.93-.65,0-1-.36-1.12-1.06l0,.06c-.37-2.72,2.18-9.43,2-11.35-.06-.71-.42-.63-.88-.92a4.74,4.74,0,0,0-.48.5.24.24,0,0,1-.29.08,29.61,29.61,0,0,0-5.42-1.31c1.39-3.9,4.29-12.09,4.29-12.83,0-1.83-1.34-2.45-3.62-3.06A75.59,75.59,0,0,0,186,27.12c-1.18,1.07-3,.09-3.33,2.17.89.94,2.56,1.72,2.56,2.45s-1.25,3.69-.77,13.41c.64.25,3.28-2.57,3.36-3.41.73-7.56,2.64-10.27,2.64-10.27a28,28,0,0,0,4.79-.26s.09,0,.07.1c-.43.86-3,6.15-3,8.6,0,3.18,1,5,3.66,5.21a7.3,7.3,0,0,0,1.69,0,12.64,12.64,0,0,0,7.88-4.48.23.23,0,0,1,.39.21c-3.89,13.82-11.37,17.29-14.51,18,.11,1,5.55.69,9.36-2.53a30.66,30.66,0,0,0,9-13.89c.42-1.42.82-2.87,1.13-4.37a44.88,44.88,0,0,0,.93-8.21c0-.46-2.55-2.14-3.09-2.14M182.75,43.28h-.14c-4.06,0,.71-14.31-5-13.54a11.24,11.24,0,0,0-2.93,1.15.58.58,0,0,0-.25.24,57.66,57.66,0,0,1-7.1,9.24.65.65,0,0,1-1.1-.24c-2.09-6.72,7.08-26.48,7.22-26.91.69-2.23-2.35-3.28-3.87-3.45-3.32,4.69-8.89,19.6-8.33,31.47a.36.36,0,0,1-.22.35c-.94.39-4.33,1.62-3.93-1.15.1-.72,1.71-5,1.71-5.72,0-.47-2-3.22-3.56-3.22-.63,0-6.39,7.27-8.32,9a.66.66,0,0,1-1-.23c-1-2.3,1.48-8.62,8.7-11a17.24,17.24,0,0,0,1.85-1.83.67.67,0,0,0,.09-.57,1.13,1.13,0,0,0-.55-.57h0c-4-1.85-12.94-1.59-14.46-1.8,1.12-5.12,4.63-13.32,4.73-14.11.14-1.23-1.06-2.43-3.54-3.1a109.77,109.77,0,0,0-7.5,17.14c-.67.7-1.67.42-2.29,2.38,0,.89,1.45,1.88,1.45,2.68a61.88,61.88,0,0,0-.85,15.72c2,.12,4.11-3,4.25-3.92a87.33,87.33,0,0,1,2.5-12,63.37,63.37,0,0,0,7.92-.51.07.07,0,0,1,.06.13c-3.84,3.24-7.48,6.39-7.4,12.46,0,2.46,2.64,3.85,4.13,3.85,2.58,0,5.22-2.3,6.48-3.73a.42.42,0,0,1,.73.21,4.15,4.15,0,0,0,4.19,3.52c1.72,0,4.26-1.63,5.24-2.16a.2.2,0,0,1,.25,0c.65.74,1.95,2.12,3.2,2.12,3.72,0,7.5-5.42,9.6-8.77a.39.39,0,0,1,.71.12c.81,3.59.77,8.65,4.38,8.65a10.49,10.49,0,0,0,3.28-.63.65.65,0,0,0-.29-1.27" transform="translate(0 -2.17)"/></g></g></g></svg>