<svg xmlns="http://www.w3.org/2000/svg" viewBox="0 0 96.93 36.99">
    <defs>
        <clipPath id="prefix__a" transform="translate(0 -8.11)">
            <path fill="none" d="M0 0h211.76v59.87H0z" />
        </clipPath>
    </defs>
    <g data-name="Layer 2">
        <g clip-path="url(#prefix__a)" data-name="Layer 1">
            <path
                d="M44.42 36.99h8.08V.48h-8.08zm-24.25-37h-.66c-3.14.03-5.51 1.43-7.09 4.9C10.18 9.78 0 36.99 0 36.99h8.36s1.51-4.37 3.33-9.47a38.58 38.58 0 008.25.86 38.27 38.27 0 008.23-.93c1.86 5.09 3.51 9.54 3.51 9.54H40S29.55 9.7 27.28 4.89c-1.63-3.48-4-4.87-7.11-4.86m-.28 21.36a19.77 19.77 0 01-5.73-.77c2-5.65 3.86-10.76 4.09-11.39.56-1.5 1-2 1.61-2s1.05.5 1.62 2c.24.62 2.1 5.72 4.17 11.35a20.26 20.26 0 01-5.76.81m64.36-16.5c-1.62-3.48-4-4.87-7.1-4.86h-.67C73.35.02 71 1.42 69.39 4.89 67.16 9.78 57 36.99 57 36.99h8.35s1.51-4.37 3.34-9.47a38.44 38.44 0 008.25.86 38.25 38.25 0 008.22-.93c1.86 5.09 3.52 9.54 3.52 9.54h8.27S86.52 9.7 84.25 4.89m-7.39 16.5a19.7 19.7 0 01-5.72-.77c2-5.65 3.86-10.76 4.08-11.39.56-1.5 1-2 1.62-2s1 .5 1.61 2c.24.62 2.11 5.72 4.17 11.35a20.21 20.21 0 01-5.76.81"
                fill="#d31245" />
        </g>
    </g>
</svg>