<svg xmlns="http://www.w3.org/2000/svg" viewBox="0 0 136 144.73">
    <defs>
        <style>
            .prefix__cls-1 {
                fill: #ffffff
            }
        </style>
    </defs>
    <g id="prefix__Layer_2" data-name="Layer 2">
        <g id="prefix__Layer_1-2" data-name="Layer 1">
            <path class="prefix__cls-1"
                d="M63.52 100.69h8.85v44.04h-8.85v-44.04zM47.46 97.21c-1.52-.83-6-3.07-11.28 1.5L8 122.52l7.15 5.67 8.75-7.77a30.86 30.86 0 007.76 5.73 30.61 30.61 0 009 3.44l-1.86 11.56 8.64 3 4.84-36.59C53.3 100.64 49 98 47.46 97.21zm-12 22a21.85 21.85 0 01-5.59-4.09l11.55-10.3a1.76 1.76 0 012.94 1.61l-2.48 15.27a22 22 0 01-6.45-2.5zM83.47 107.52l4.85 36.59 8.63-3-1.83-11.56a30.87 30.87 0 009-3.44 30.7 30.7 0 007.75-5.73l8.76 7.77 7.14-5.67-28.2-23.77c-5.24-4.57-9.76-2.33-11.28-1.5s-5.84 3.43-4.82 10.31zm10.4 14.18l-2.45-15.28a1.81 1.81 0 01.88-1.88 1.78 1.78 0 012.06.27l11.55 10.3a21.66 21.66 0 01-5.59 4.09 22 22 0 01-6.45 2.5zM53.92 58.67a49.54 49.54 0 00-5-1c-1.17-.25.58-1 1.16-1.09A29.2 29.2 0 0056.75 54c1.58-1.08 6.92-4.08 7.67-5.25s3.33-.5 3.66-.5c0 0 .17.41-.5 1.08a4.54 4.54 0 00-.91 2.25A3.63 3.63 0 0165 53.67c-.92.58-4.08 2.49-3.67 5.16a11.2 11.2 0 004.59 6.67 88.42 88.42 0 018.66 6.5c1.42 1.33 2.34 3.83 3.25 6.58a6.41 6.41 0 005.84 4.09c2 0 5.16-.09 6.41 1.83a1.47 1.47 0 01-1.16.25 17.76 17.76 0 00-4.84 1.42c-.83.41-3.91.58-6.5.33s-4.41-.25-5.41.83a5.2 5.2 0 01-3.67 2c-1.75.17-11.92-.41-14-1.58-2.4-1.35 2.17-1.42 2.92-1.67s6-1.08 7.5-1.83c1.21-.61 4.58-4.75 6.16-5.25s1.42-3.09-.08-3.92-2.17.58-3.33-1-.09-2.25-1.17-3.83S61.67 66 60 63.67s-4.33-4.5-6.08-5z" />
            <path class="prefix__cls-1"
                d="M68 0a68 68 0 00-53.83 109.52l2.18-1.66a61.76 61.76 0 01-11-22.19c0-.88 1.9-.5 3-.25s8.87 2.75 11.87 2.25a45.68 45.68 0 0010.13-3.25 19.07 19.07 0 018.12-1.5c1.25.12-.62-1.38-1.75-1.88s-4.12 0-7.25 0 5.75-9 6.5-9.5 1.5-1 .5-1-6.87 3.25-8.87 3.88-6.25.5-8.5.62-7.75 3.75-9.38 4.5a47.19 47.19 0 01-5.31 1.74s.81-10.86 4.44-16S17.5 55 19.38 55.92s0 2.62.87 3.5 2.13.75 2.13 2.75.5 3-2.13 5.87-3.5 4.88-1 4 8.5-2.75 10.13-3.25 5-4.12 6.87-5.12S46.63 54 48.38 53.17s4.87-3.25 5.75-4.63 3-4.25 4.87-5.25 7.88-4.62 9-6.37 2.63-4.75 3.38-4.63a9.88 9.88 0 014 2.38c1 1.12.75 2.37 1.37 3.37a7.83 7.83 0 003.88 3.13c1.87.62 7 4.62 5.87 5.12-.92.41-4.37-2.12-5.87-2.25s-2.5 0-2.13.88 4.75 4.62 5.75 6 1 4.62 1.88 7.25 2.87 2.87 3.12 7 3.88 8 5.38 9.25 3.62 3.12 4.87 3.25 1-.75 3 0 1.63 0 .75-1.63a1.39 1.39 0 01.88-2.12c4.37-.25 6.12 4.5 6 8.5s-2.88 3-4.38 6.12 0 2.25.75 1.63 6-.5 8.63-.75 4.87-3.63 5.87-4.5a2.15 2.15 0 012.75-.38c.88.5-.12 3.25.38 3.63s3.25-1.63 4.25-2.38a4.45 4.45 0 012.37-.75v-.06a61.89 61.89 0 01-11.26 23l2.19 1.66A68 68 0 0068 0zm54.63 66.92c-1.63-1.25-5.88-6.25-8-6.88s-8.25-4.75-10.13-5.62A10.91 10.91 0 01100 49c-.37-1.5-3.87-6.25-5.75-6.62s-10.37-4.13-11.62-4.63a50.89 50.89 0 01-7.5-4.75 5.39 5.39 0 00-4.44-1.37c-.63.25-2.56 3.75-3.31 4.87s-8 5.63-8.88 5.88a17.83 17.83 0 00-4.5 2.91c-1.58 1.42-2 3.38-4 4.63s-10.37 7-11.87 8-3.88 4.37-5.63 4.25-7.87-2.75-9.25-4.25A17.39 17.39 0 0019.13 55c-2.84 0-11.84 8.51-15.65 12.21C5.07 33.92 33.34 7.4 68 7.4c33.81 0 61.53 25.24 64.35 57.38-2.54 4.3-8.16 3.34-9.72 2.14z" />
        </g>
    </g>
</svg>