<svg xmlns="http://www.w3.org/2000/svg" viewBox="0 0 104.33 57.22">
    <defs>
        <clipPath id="prefix__a" transform="translate(-107.41 -2.17)">
            <path fill="none" d="M0 0h211.76v59.87H0z" />
        </clipPath>
    </defs>
    <g data-name="Layer 2">
        <g clip-path="url(#prefix__a)" data-name="Layer 1">
            <path
                d="M23.14 28.02c0 .73-2.21 9.59-2.21 10.32a1.14 1.14 0 00.36 1s.48 2.78-3.13 3.67a3 3 0 01-3-3.22c.28-2.67.7-10.56 5-15.41a3.82 3.82 0 013 3.67m48-3.39c.75 0 2.42-1.28 2.42-2.34 0-.48-1.81-4.4-4.27-4.4a2 2 0 00-1.72 1.58c0 1.21 1 5.13 3.56 5.13m-47-2.8c.75 0 2.13-.51 2.13-1.57 0-.47-1.94-5.13-4.4-5.13a2 2 0 00-1.71 1.61c0 1.21.27 5.09 4 5.09m7.6-21.4c-1-1.13-14-2.6-25.14 32.63a.24.24 0 01-.47 0c-1.75-9.35-1-20-1.21-21.65C4.4 7.17.81 8.52.81 8.52-.81 11.89.22 39.09 2.93 42.64c1.62.69 6.24.45 7.22-.65 0 0 6.48-34.4 21.62-41.53m69.51 25.17c-.33 0-.53.42-.53.42-3.92 7.07-7.47 12.71-10.48 12.93-.65 0-1-.36-1.12-1.06v.06c-.37-2.72 2.18-9.44 2-11.35-.06-.71-.42-.63-.88-.92a4.74 4.74 0 00-.48.5.24.24 0 01-.29.08 29.61 29.61 0 00-5.42-1.31c1.39-3.9 4.29-12.09 4.29-12.83 0-1.83-1.34-2.45-3.62-3.06a75.59 75.59 0 00-6.16 15.86c-1.18 1.07-3 .09-3.33 2.17.89.94 2.56 1.72 2.56 2.45s-1.25 3.69-.77 13.41c.64.25 3.28-2.57 3.36-3.41.73-7.56 2.64-10.27 2.64-10.27a28 28 0 004.79-.26.06.06 0 01.07.09c-.43.87-3 6.16-3 8.61 0 3.18 1 5 3.66 5.21a7.32 7.32 0 001.69 0 12.58 12.58 0 007.88-4.47.22.22 0 01.39.2c-3.89 13.83-11.37 17.29-14.51 18 .11 1 5.55.69 9.36-2.53a30.71 30.71 0 009-13.89c.42-1.42.82-2.87 1.13-4.37a44.88 44.88 0 00.93-8.21c0-.46-2.55-2.14-3.09-2.14M75.34 41.11h-.14c-4.06 0 .71-14.31-5-13.54a11.24 11.24 0 00-2.93 1.15.58.58 0 00-.25.24 57.66 57.66 0 01-7.1 9.24.65.65 0 01-1.1-.24c-2.09-6.72 7.08-26.48 7.22-26.91.69-2.23-2.35-3.29-3.87-3.45-3.32 4.69-8.89 19.6-8.33 31.47a.36.36 0 01-.22.35c-.94.39-4.33 1.62-3.93-1.15.1-.72 1.71-5 1.71-5.72 0-.47-2-3.22-3.56-3.22-.63 0-6.39 7.27-8.32 9a.66.66 0 01-1-.23c-1-2.3 1.48-8.62 8.7-11a17.24 17.24 0 001.85-1.83.67.67 0 00.09-.57 1.13 1.13 0 00-.55-.57c-4-1.85-12.94-1.59-14.46-1.8 1.12-5.12 4.63-13.32 4.73-14.11.14-1.23-1.06-2.43-3.54-3.1a109.35 109.35 0 00-7.5 17.14c-.67.7-1.67.42-2.29 2.38 0 .89 1.45 1.88 1.45 2.68a61.81 61.81 0 00-.85 15.72c2 .12 4.11-3 4.25-3.92a87.33 87.33 0 012.5-12 61.31 61.31 0 007.92-.52.08.08 0 01.06.14c-3.84 3.24-7.48 6.39-7.4 12.46 0 2.46 2.64 3.85 4.13 3.85 2.58 0 5.22-2.3 6.48-3.73a.42.42 0 01.73.21 4.15 4.15 0 004.19 3.52c1.72 0 4.26-1.63 5.24-2.16a.2.2 0 01.25 0c.65.74 1.95 2.12 3.2 2.12 3.72 0 7.5-5.42 9.6-8.77a.39.39 0 01.71.12c.81 3.59.77 8.65 4.38 8.65a10.49 10.49 0 003.28-.63.651.651 0 00-.29-1.27"
                fill="#d31245" />
        </g>
    </g>
</svg>