<svg xmlns="http://www.w3.org/2000/svg" xmlns:xlink="http://www.w3.org/1999/xlink" viewBox="0 0 242.84 79.37"><defs><style>.cls-1{fill:none;}.cls-2{fill:#d31245;}.cls-3{clip-path:url(#clip-path);}.cls-4{fill:#fff;}</style><clipPath id="clip-path"><rect class="cls-1" x="15.54" y="9.75" width="211.76" height="59.87"/></clipPath></defs><g id="Layer_2" data-name="Layer 2"><g id="Layer_1-2" data-name="Layer 1"><rect class="cls-2" width="242.84" height="79.37"/><g class="cls-3"><path class="cls-4" d="M60,54.85H68V18.34H60Zm-24.25-37a1.72,1.72,0,0,0-.34,0h-.32c-3.14,0-5.49,1.41-7.09,4.92-2.24,4.85-12.42,32.07-12.42,32.07H23.9s1.51-4.37,3.33-9.47a38.51,38.51,0,0,0,8.25.86,38.27,38.27,0,0,0,8.23-.93c1.86,5.09,3.51,9.54,3.51,9.54h8.27S45.08,27.56,42.82,22.73c-1.63-3.48-4-4.87-7.11-4.86m-.28,21.38a19.77,19.77,0,0,1-5.73-.77c2-5.65,3.86-10.76,4.09-11.39.55-1.5,1-2,1.61-2s1,.5,1.62,2c.24.63,2.1,5.73,4.16,11.36a20.19,20.19,0,0,1-5.75.81M99.79,22.73c-1.62-3.48-4-4.87-7.11-4.86a1.66,1.66,0,0,0-.34,0H92c-3.14,0-5.48,1.41-7.09,4.92C82.7,27.63,72.51,54.85,72.51,54.85h8.36s1.51-4.37,3.34-9.47a38.44,38.44,0,0,0,8.25.86,38.25,38.25,0,0,0,8.22-.93c1.86,5.09,3.51,9.54,3.51,9.54h8.28S102.06,27.56,99.79,22.73M92.4,39.25a19.82,19.82,0,0,1-5.73-.77c2-5.65,3.86-10.76,4.09-11.39.56-1.5,1-2,1.61-2s1,.5,1.62,2c.24.63,2.11,5.73,4.17,11.36a20.21,20.21,0,0,1-5.76.81"/><path class="cls-4" d="M146.09,39.94c0,.73-2.21,9.59-2.21,10.32a1.14,1.14,0,0,0,.36,1s.48,2.78-3.13,3.67a3,3,0,0,1-3-3.22c.29-2.67.71-10.56,5-15.41a3.82,3.82,0,0,1,3,3.67m48-3.39c.75,0,2.42-1.28,2.42-2.34,0-.48-1.82-4.4-4.27-4.4a2,2,0,0,0-1.71,1.61c0,1.21,1,5.13,3.56,5.13m-47-2.8c.75,0,2.13-.51,2.13-1.57,0-.48-1.95-5.13-4.4-5.13a2,2,0,0,0-1.71,1.61c0,1.21.27,5.09,4,5.09m7.6-21.4c-1-1.14-14-2.6-25.14,32.62a.24.24,0,0,1-.47,0c-1.76-9.35-1-20-1.21-21.65-.55-4.24-4.15-2.89-4.15-2.89-1.62,3.37-.58,30.57,2.13,34.12,1.62.69,6.24.45,7.22-.65,0,0,6.48-34.4,21.62-41.53M224.2,37.52c-.33,0-.53.42-.53.42-3.92,7.07-7.47,12.71-10.49,12.93-.65,0-1-.37-1.11-1.06l0,.06c-.37-2.72,2.18-9.44,2-11.35-.06-.71-.43-.63-.88-.92a4.74,4.74,0,0,0-.48.5.25.25,0,0,1-.29.08A29.61,29.61,0,0,0,207,36.87c1.39-3.9,4.29-12.09,4.29-12.83,0-1.83-1.34-2.45-3.62-3.06a75.59,75.59,0,0,0-6.15,15.89c-1.19,1.06-3,.08-3.33,2.17.89.94,2.56,1.72,2.56,2.45s-1.25,3.69-.77,13.41c.64.24,3.28-2.57,3.36-3.41.73-7.56,2.64-10.27,2.64-10.27a27.91,27.91,0,0,0,4.78-.26.07.07,0,0,1,.08.09c-.43.87-3,6.16-3,8.61,0,3.18,1,5,3.66,5.21a7.32,7.32,0,0,0,1.69,0A12.6,12.6,0,0,0,221,50.4a.22.22,0,0,1,.38.21c-3.88,13.83-11.36,17.29-14.51,18,.11,1,5.56.69,9.37-2.53a30.87,30.87,0,0,0,9-13.89c.42-1.42.82-2.87,1.13-4.37a44.88,44.88,0,0,0,.93-8.21c0-.47-2.55-2.14-3.09-2.14M198.28,53h-.13c-4.06,0,.71-14.31-5-13.54a11.24,11.24,0,0,0-2.93,1.15.6.6,0,0,0-.26.24,56.67,56.67,0,0,1-7.09,9.24.65.65,0,0,1-1.1-.24C179.67,43.17,188.84,23.41,189,23c.69-2.22-2.35-3.28-3.87-3.44-3.32,4.69-8.89,19.6-8.33,31.47a.37.37,0,0,1-.22.35c-.94.39-4.33,1.62-3.93-1.15.1-.72,1.71-5,1.71-5.72,0-.47-2-3.22-3.56-3.22-.63,0-6.39,7.27-8.33,9a.65.65,0,0,1-1-.23c-1.05-2.3,1.48-8.62,8.7-11A18.22,18.22,0,0,0,172,37.15a.71.71,0,0,0,.09-.57,1.13,1.13,0,0,0-.55-.57h0c-4-1.85-12.94-1.59-14.46-1.8,1.12-5.12,4.63-13.32,4.72-14.11.15-1.23-1.05-2.43-3.53-3.1a108.32,108.32,0,0,0-7.5,17.14c-.67.7-1.67.41-2.29,2.38,0,.89,1.44,1.88,1.44,2.68a62.17,62.17,0,0,0-.84,15.72c2,.12,4.11-3,4.25-3.92a85.39,85.39,0,0,1,2.5-12,61.44,61.44,0,0,0,7.92-.52.08.08,0,0,1,.06.14c-3.84,3.24-7.49,6.39-7.4,12.46,0,2.46,2.64,3.85,4.13,3.85,2.58,0,5.22-2.3,6.48-3.73a.42.42,0,0,1,.73.21,4.14,4.14,0,0,0,4.19,3.51c1.72,0,4.26-1.62,5.24-2.15a.2.2,0,0,1,.25,0c.65.74,2,2.12,3.19,2.12,3.73,0,7.51-5.42,9.61-8.77a.39.39,0,0,1,.71.12c.8,3.58.77,8.65,4.38,8.65a10.49,10.49,0,0,0,3.28-.63.66.66,0,0,0-.3-1.27"/></g></g></g></svg>